<svg width="30" height="22" viewBox="0 0 30 22" fill="none" xmlns="http://www.w3.org/2000/svg">
<g clip-path="url(#clip0_9_3929)">
<rect y="-0.00842285" width="29.54" height="21.1" rx="3" fill="white"/>
<path fill-rule="evenodd" clip-rule="evenodd" d="M0 -0.00842285H12.66V9.83824H0V-0.00842285Z" fill="#1A47B8"/>
<path fill-rule="evenodd" clip-rule="evenodd" d="M12.66 -0.00842285V1.39824H29.54V-0.00842285H12.66ZM12.66 2.80491V4.21158H29.54V2.80491H12.66ZM12.66 5.61824V7.02491H29.54V5.61824H12.66ZM12.66 8.43158V9.83824H29.54V8.43158H12.66ZM0 11.2449V12.6516H29.54V11.2449H0ZM0 14.0582V15.4649H29.54V14.0582H0ZM0 16.8716V18.2782H29.54V16.8716H0ZM0 19.6849V21.0916H29.54V19.6849H0Z" fill="#F93939"/>
<path fill-rule="evenodd" clip-rule="evenodd" d="M1.40668 1.39819V2.80486H2.81334V1.39819H1.40668ZM4.22001 1.39819V2.80486H5.62668V1.39819H4.22001ZM7.03334 1.39819V2.80486H8.44001V1.39819H7.03334ZM9.84668 1.39819V2.80486H11.2533V1.39819H9.84668ZM8.44001 2.80486V4.21153H9.84668V2.80486H8.44001ZM5.62668 2.80486V4.21153H7.03334V2.80486H5.62668ZM2.81334 2.80486V4.21153H4.22001V2.80486H2.81334ZM1.40668 4.21153V5.61819H2.81334V4.21153H1.40668ZM4.22001 4.21153V5.61819H5.62668V4.21153H4.22001ZM7.03334 4.21153V5.61819H8.44001V4.21153H7.03334ZM9.84668 4.21153V5.61819H11.2533V4.21153H9.84668ZM1.40668 7.02486V8.43153H2.81334V7.02486H1.40668ZM4.22001 7.02486V8.43153H5.62668V7.02486H4.22001ZM7.03334 7.02486V8.43153H8.44001V7.02486H7.03334ZM9.84668 7.02486V8.43153H11.2533V7.02486H9.84668ZM8.44001 5.61819V7.02486H9.84668V5.61819H8.44001ZM5.62668 5.61819V7.02486H7.03334V5.61819H5.62668ZM2.81334 5.61819V7.02486H4.22001V5.61819H2.81334Z" fill="white"/>
</g>
<defs>
<clipPath id="clip0_9_3929">
<rect y="-0.00842285" width="29.54" height="21.1" rx="3" fill="white"/>
</clipPath>
</defs>
</svg>
