<svg width="115" height="31" viewBox="0 0 115 31" fill="none" xmlns="http://www.w3.org/2000/svg">
<path d="M95.4464 21.2739V19.172H95.7063V21.2739H95.4464ZM97.2667 21.2739V20.4842C97.2667 20.4093 97.2599 20.3373 97.2463 20.2682C97.2336 20.1991 97.2108 20.1373 97.1777 20.0828C97.1456 20.0274 97.1018 19.9836 97.0463 19.9515C96.9918 19.9194 96.9227 19.9033 96.839 19.9033C96.7738 19.9033 96.7145 19.9145 96.661 19.9369C96.6084 19.9583 96.5632 19.9914 96.5252 20.0361C96.4873 20.0809 96.4576 20.1373 96.4362 20.2054C96.4157 20.2726 96.4055 20.3519 96.4055 20.4434L96.2347 20.3908C96.2347 20.238 96.262 20.1072 96.3165 19.9982C96.3719 19.8882 96.4493 19.804 96.5486 19.7457C96.6488 19.6863 96.7665 19.6566 96.9018 19.6566C97.004 19.6566 97.0911 19.6727 97.1631 19.7048C97.2351 19.7369 97.2949 19.7797 97.3426 19.8332C97.3903 19.8858 97.4278 19.9451 97.455 20.0113C97.4823 20.0765 97.5012 20.1432 97.5119 20.2113C97.5236 20.2784 97.5295 20.3422 97.5295 20.4025V21.2739H97.2667ZM96.1428 21.2739V19.6975H96.3763V20.1193H96.4055V21.2739H96.1428ZM98.5588 21.3177C98.3993 21.3177 98.2635 21.2822 98.1516 21.2112C98.0407 21.1391 97.956 21.0404 97.8976 20.9148C97.8392 20.7893 97.8091 20.6463 97.8071 20.4857C97.8091 20.3212 97.8397 20.1767 97.8991 20.0522C97.9594 19.9266 98.0455 19.8289 98.1574 19.7588C98.2693 19.6887 98.4041 19.6537 98.5618 19.6537C98.7282 19.6537 98.8712 19.6946 98.9909 19.7763C99.1116 19.858 99.1923 19.97 99.2332 20.112L98.9763 20.1894C98.9432 20.0979 98.8892 20.0269 98.8143 19.9763C98.7403 19.9257 98.6552 19.9004 98.5588 19.9004C98.4508 19.9004 98.3618 19.9257 98.2917 19.9763C98.2217 20.0259 98.1696 20.095 98.1355 20.1836C98.1015 20.2711 98.084 20.3718 98.083 20.4857C98.0849 20.6609 98.1253 20.8025 98.2041 20.9105C98.2839 21.0175 98.4022 21.071 98.5588 21.071C98.662 21.071 98.7476 21.0477 98.8157 21.001C98.8839 20.9533 98.9354 20.8847 98.9705 20.7952L99.2332 20.8638C99.1787 21.0107 99.0936 21.1231 98.9778 21.2009C98.862 21.2788 98.7223 21.3177 98.5588 21.3177ZM100.171 21.3177C100.017 21.3177 99.8815 21.2837 99.7657 21.2155C99.6509 21.1464 99.5613 21.0506 99.4971 20.928C99.4329 20.8044 99.4008 20.6604 99.4008 20.4959C99.4008 20.3237 99.4324 20.1748 99.4957 20.0493C99.5589 19.9228 99.647 19.8254 99.7599 19.7573C99.8737 19.6882 100.007 19.6537 100.16 19.6537C100.318 19.6537 100.453 19.6902 100.564 19.7632C100.676 19.8362 100.76 19.9403 100.815 20.0755C100.872 20.2108 100.896 20.3718 100.888 20.5587H100.625V20.4653C100.623 20.2716 100.583 20.1271 100.507 20.0317C100.431 19.9354 100.318 19.8872 100.169 19.8872C100.008 19.8872 99.8859 19.9388 99.8022 20.042C99.7185 20.1451 99.6767 20.293 99.6767 20.4857C99.6767 20.6716 99.7185 20.8156 99.8022 20.9178C99.8859 21.0199 100.005 21.071 100.16 21.071C100.264 21.071 100.354 21.0472 100.431 20.9995C100.508 20.9518 100.569 20.8832 100.612 20.7937L100.862 20.8798C100.801 21.019 100.708 21.127 100.585 21.2039C100.462 21.2798 100.324 21.3177 100.171 21.3177ZM99.5891 20.5587V20.35H100.754V20.5587H99.5891ZM102.293 21.2739V20.4842C102.293 20.4093 102.286 20.3373 102.272 20.2682C102.26 20.1991 102.237 20.1373 102.204 20.0828C102.172 20.0274 102.128 19.9836 102.072 19.9515C102.018 19.9194 101.949 19.9033 101.865 19.9033C101.8 19.9033 101.741 19.9145 101.687 19.9369C101.635 19.9583 101.589 19.9914 101.551 20.0361C101.513 20.0809 101.484 20.1373 101.462 20.2054C101.442 20.2726 101.432 20.3519 101.432 20.4434L101.261 20.3908C101.261 20.238 101.288 20.1072 101.343 19.9982C101.398 19.8882 101.475 19.804 101.575 19.7457C101.675 19.6863 101.793 19.6566 101.928 19.6566C102.03 19.6566 102.117 19.6727 102.189 19.7048C102.261 19.7369 102.321 19.7797 102.369 19.8332C102.416 19.8858 102.454 19.9451 102.481 20.0113C102.508 20.0765 102.527 20.1432 102.538 20.2113C102.55 20.2784 102.556 20.3422 102.556 20.4025V21.2739H102.293ZM101.169 21.2739V19.6975H101.402V20.1193H101.432V21.2739H101.169ZM103.815 21.2739C103.722 21.2924 103.629 21.2997 103.538 21.2958C103.447 21.2929 103.367 21.2749 103.296 21.2418C103.225 21.2078 103.171 21.1552 103.134 21.0842C103.102 21.0219 103.085 20.9591 103.083 20.8959C103.081 20.8316 103.08 20.7591 103.08 20.6784V19.2596H103.339V20.6667C103.339 20.7309 103.34 20.7859 103.341 20.8316C103.343 20.8774 103.353 20.9168 103.372 20.9499C103.407 21.0122 103.462 21.0486 103.538 21.0594C103.615 21.0701 103.707 21.0671 103.815 21.0506V21.2739ZM102.76 19.9121V19.6975H103.815V19.9121H102.76ZM104.165 19.4187V19.1501H104.424V19.4187H104.165ZM104.165 21.2739V19.6975H104.424V21.2739H104.165ZM105.289 21.2739L104.716 19.6975H104.979L105.421 20.9426L105.862 19.6975H106.126L105.554 21.2739H105.289ZM106.75 21.3177C106.632 21.3177 106.534 21.2963 106.454 21.2535C106.375 21.2097 106.315 21.1523 106.274 21.0812C106.234 21.0102 106.214 20.9324 106.214 20.8477C106.214 20.765 106.23 20.6935 106.261 20.6331C106.293 20.5718 106.338 20.5212 106.395 20.4813C106.453 20.4405 106.521 20.4083 106.601 20.385C106.676 20.3646 106.76 20.347 106.852 20.3324C106.946 20.3169 107.04 20.3028 107.136 20.2901C107.231 20.2775 107.32 20.2653 107.403 20.2536L107.309 20.3076C107.312 20.1675 107.284 20.0639 107.225 19.9967C107.166 19.9296 107.065 19.896 106.921 19.896C106.826 19.896 106.742 19.9179 106.67 19.9617C106.599 20.0045 106.549 20.0746 106.52 20.1719L106.273 20.0974C106.311 19.9592 106.384 19.8507 106.493 19.7719C106.602 19.6931 106.746 19.6537 106.924 19.6537C107.067 19.6537 107.19 19.6795 107.292 19.7311C107.395 19.7817 107.469 19.8585 107.514 19.9617C107.536 20.0103 107.55 20.0634 107.556 20.1208C107.562 20.1772 107.565 20.2366 107.565 20.2989V21.2739H107.334V20.8959L107.388 20.9309C107.329 21.0584 107.245 21.1547 107.138 21.2199C107.032 21.2851 106.903 21.3177 106.75 21.3177ZM106.79 21.1002C106.883 21.1002 106.964 21.0837 107.032 21.0506C107.101 21.0165 107.156 20.9723 107.198 20.9178C107.24 20.8623 107.267 20.802 107.28 20.7368C107.295 20.6881 107.302 20.6341 107.303 20.5747C107.305 20.5144 107.306 20.4682 107.306 20.4361L107.397 20.4755C107.312 20.4872 107.229 20.4984 107.147 20.5091C107.065 20.5198 106.988 20.5314 106.915 20.5441C106.842 20.5558 106.776 20.5699 106.718 20.5864C106.675 20.6 106.635 20.6176 106.597 20.639C106.56 20.6604 106.53 20.6881 106.506 20.7222C106.484 20.7553 106.473 20.7966 106.473 20.8462C106.473 20.8891 106.484 20.9299 106.505 20.9689C106.527 21.0078 106.561 21.0394 106.607 21.0637C106.654 21.0881 106.715 21.1002 106.79 21.1002ZM109.067 21.2739V20.4842C109.067 20.4093 109.06 20.3373 109.046 20.2682C109.034 20.1991 109.011 20.1373 108.978 20.0828C108.946 20.0274 108.902 19.9836 108.846 19.9515C108.792 19.9194 108.723 19.9033 108.639 19.9033C108.574 19.9033 108.514 19.9145 108.461 19.9369C108.408 19.9583 108.363 19.9914 108.325 20.0361C108.287 20.0809 108.258 20.1373 108.236 20.2054C108.216 20.2726 108.205 20.3519 108.205 20.4434L108.035 20.3908C108.035 20.238 108.062 20.1072 108.116 19.9982C108.172 19.8882 108.249 19.804 108.349 19.7457C108.449 19.6863 108.566 19.6566 108.702 19.6566C108.804 19.6566 108.891 19.6727 108.963 19.7048C109.035 19.7369 109.095 19.7797 109.143 19.8332C109.19 19.8858 109.228 19.9451 109.255 20.0113C109.282 20.0765 109.301 20.1432 109.312 20.2113C109.324 20.2784 109.329 20.3422 109.329 20.4025V21.2739H109.067ZM107.943 21.2739V19.6975H108.176V20.1193H108.205V21.2739H107.943ZM110.314 21.3177C110.167 21.3177 110.041 21.2812 109.935 21.2082C109.83 21.1343 109.749 21.0345 109.692 20.909C109.635 20.7835 109.607 20.6419 109.607 20.4842C109.607 20.3266 109.635 20.185 109.692 20.0595C109.749 19.9339 109.83 19.8352 109.935 19.7632C110.041 19.6902 110.166 19.6537 110.312 19.6537C110.461 19.6537 110.586 19.6897 110.687 19.7617C110.788 19.8337 110.865 19.9325 110.916 20.058C110.969 20.1836 110.995 20.3256 110.995 20.4842C110.995 20.6409 110.969 20.7825 110.916 20.909C110.865 21.0345 110.788 21.1343 110.687 21.2082C110.586 21.2812 110.461 21.3177 110.314 21.3177ZM110.346 21.0798C110.452 21.0798 110.539 21.0545 110.607 21.0039C110.675 20.9523 110.725 20.8818 110.757 20.7922C110.79 20.7017 110.807 20.5991 110.807 20.4842C110.807 20.3675 110.79 20.2648 110.757 20.1763C110.725 20.0867 110.676 20.0171 110.608 19.9675C110.541 19.9169 110.456 19.8916 110.353 19.8916C110.246 19.8916 110.157 19.9179 110.087 19.9704C110.018 20.023 109.967 20.094 109.933 20.1836C109.899 20.2731 109.883 20.3733 109.883 20.4842C109.883 20.5962 109.9 20.6974 109.934 20.7879C109.968 20.8774 110.019 20.9484 110.087 21.001C110.156 21.0535 110.243 21.0798 110.346 21.0798ZM110.807 21.2739V20.1135H110.778V19.172H111.039V21.2739H110.807ZM112.119 21.3177C111.963 21.3177 111.827 21.2822 111.714 21.2112C111.601 21.1401 111.514 21.0418 111.452 20.9163C111.391 20.7908 111.36 20.6468 111.36 20.4842C111.36 20.3188 111.392 20.1738 111.454 20.0493C111.516 19.9247 111.604 19.8279 111.718 19.7588C111.832 19.6887 111.966 19.6537 112.119 19.6537C112.277 19.6537 112.413 19.6892 112.527 19.7602C112.641 19.8303 112.728 19.9281 112.788 20.0536C112.849 20.1782 112.88 20.3217 112.88 20.4842C112.88 20.6487 112.849 20.7937 112.788 20.9192C112.727 21.0438 112.639 21.1416 112.525 21.2126C112.411 21.2827 112.276 21.3177 112.119 21.3177ZM112.119 21.071C112.283 21.071 112.405 21.0165 112.484 20.9075C112.564 20.7986 112.604 20.6575 112.604 20.4842C112.604 20.3062 112.564 20.1646 112.483 20.0595C112.402 19.9534 112.281 19.9004 112.119 19.9004C112.009 19.9004 111.919 19.9252 111.848 19.9748C111.777 20.0244 111.724 20.0931 111.689 20.1806C111.654 20.2682 111.636 20.3694 111.636 20.4842C111.636 20.6614 111.677 20.8034 111.759 20.9105C111.841 21.0175 111.961 21.071 112.119 21.071ZM95.4172 25.2739V23.172H96.7455V23.4187H95.6771V24.077H96.5704V24.3237H95.6771V25.0272H96.7455V25.2739H95.4172ZM97.5227 25.2739L96.9505 23.6975H97.2132L97.6555 24.9426L98.0963 23.6975H98.3605L97.7883 25.2739H97.5227ZM99.239 25.3177C99.0823 25.3177 98.947 25.2822 98.8332 25.2112C98.7203 25.1401 98.6332 25.0418 98.5719 24.9163C98.5106 24.7908 98.4799 24.6468 98.4799 24.4842C98.4799 24.3188 98.5111 24.1738 98.5733 24.0493C98.6356 23.9247 98.7237 23.8279 98.8375 23.7588C98.9514 23.6887 99.0852 23.6537 99.239 23.6537C99.3966 23.6537 99.5324 23.6892 99.6462 23.7602C99.7601 23.8303 99.8472 23.9281 99.9075 24.0536C99.9688 24.1782 99.9994 24.3217 99.9994 24.4842C99.9994 24.6487 99.9688 24.7937 99.9075 24.9192C99.8462 25.0438 99.7586 25.1416 99.6447 25.2126C99.5309 25.2827 99.3956 25.3177 99.239 25.3177ZM99.239 25.071C99.4024 25.071 99.5241 25.0165 99.6039 24.9075C99.6837 24.7986 99.7236 24.6575 99.7236 24.4842C99.7236 24.3062 99.6832 24.1646 99.6024 24.0595C99.5216 23.9534 99.4005 23.9004 99.239 23.9004C99.129 23.9004 99.0385 23.9252 98.9675 23.9748C98.8964 24.0244 98.8434 24.0931 98.8084 24.1806C98.7733 24.2682 98.7558 24.3694 98.7558 24.4842C98.7558 24.6614 98.7967 24.8034 98.8784 24.9105C98.9602 25.0175 99.0803 25.071 99.239 25.071ZM100.35 25.2739V23.1282H100.61V25.2739H100.35ZM101.646 25.3148C101.545 25.3148 101.458 25.2987 101.385 25.2666C101.313 25.2345 101.253 25.1917 101.205 25.1382C101.158 25.0847 101.12 25.0253 101.093 24.9601C101.066 24.8949 101.046 24.8282 101.035 24.7601C101.024 24.692 101.019 24.6283 101.019 24.5689V23.6975H101.281V24.4872C101.281 24.5611 101.288 24.6326 101.302 24.7017C101.315 24.7708 101.338 24.8331 101.37 24.8886C101.403 24.944 101.447 24.9878 101.502 25.0199C101.557 25.0521 101.626 25.0681 101.709 25.0681C101.774 25.0681 101.834 25.0569 101.887 25.0345C101.941 25.0122 101.986 24.9791 102.024 24.9353C102.062 24.8905 102.091 24.8341 102.112 24.766C102.132 24.6978 102.143 24.6185 102.143 24.528L102.313 24.5806C102.313 24.7324 102.286 24.8633 102.23 24.9732C102.176 25.0832 102.098 25.1679 101.998 25.2272C101.899 25.2856 101.782 25.3148 101.646 25.3148ZM102.172 25.2739V24.8521H102.143V23.6975H102.404V25.2739H102.172ZM103.412 25.976C103.376 25.976 103.342 25.9712 103.31 25.9614C103.279 25.9527 103.249 25.9415 103.221 25.9279L103.284 25.76C103.328 25.7756 103.363 25.7834 103.391 25.7834C103.426 25.7834 103.452 25.7726 103.471 25.7512C103.49 25.7298 103.5 25.7065 103.5 25.6812C103.5 25.6384 103.481 25.6072 103.442 25.5878C103.403 25.5693 103.358 25.5527 103.307 25.5381L103.414 25.2389L103.591 25.2374L103.522 25.4301C103.575 25.4544 103.618 25.4875 103.65 25.5294C103.682 25.5722 103.699 25.6252 103.699 25.6885C103.699 25.7712 103.67 25.8398 103.614 25.8943C103.557 25.9488 103.49 25.976 103.412 25.976ZM103.477 25.3177C103.317 25.3177 103.181 25.2822 103.069 25.2112C102.958 25.1391 102.874 25.0404 102.815 24.9148C102.757 24.7893 102.727 24.6463 102.725 24.4857C102.727 24.3212 102.758 24.1767 102.817 24.0522C102.877 23.9266 102.963 23.8289 103.075 23.7588C103.187 23.6887 103.322 23.6537 103.48 23.6537C103.646 23.6537 103.789 23.6946 103.909 23.7763C104.029 23.858 104.11 23.97 104.151 24.112L103.894 24.1894C103.861 24.0979 103.807 24.0269 103.732 23.9763C103.658 23.9257 103.573 23.9004 103.477 23.9004C103.369 23.9004 103.28 23.9257 103.21 23.9763C103.139 24.0259 103.087 24.095 103.053 24.1836C103.019 24.2711 103.002 24.3718 103.001 24.4857C103.003 24.6609 103.043 24.8025 103.122 24.9105C103.202 25.0175 103.32 25.071 103.477 25.071C103.58 25.071 103.665 25.0477 103.734 25.001C103.802 24.9533 103.853 24.8847 103.888 24.7952L104.151 24.8638C104.097 25.0107 104.011 25.1231 103.896 25.2009C103.78 25.2788 103.64 25.3177 103.477 25.3177ZM105.307 23.4523C105.264 23.4523 105.223 23.4435 105.183 23.426C105.143 23.4075 105.104 23.3866 105.067 23.3632C105.03 23.3399 104.995 23.3194 104.962 23.3019C104.929 23.2834 104.898 23.2742 104.869 23.2742C104.834 23.2742 104.811 23.2897 104.8 23.3209C104.79 23.3511 104.79 23.3851 104.8 23.4231H104.625C104.602 23.3258 104.61 23.2435 104.65 23.1764C104.69 23.1083 104.757 23.0742 104.851 23.0742C104.895 23.0742 104.937 23.0834 104.977 23.1019C105.017 23.1195 105.055 23.1399 105.092 23.1632C105.13 23.1866 105.166 23.2075 105.199 23.226C105.232 23.2435 105.263 23.2523 105.291 23.2523C105.324 23.2523 105.347 23.2372 105.359 23.207C105.372 23.1769 105.372 23.1413 105.359 23.1005H105.535C105.559 23.1958 105.551 23.2786 105.511 23.3486C105.471 23.4177 105.403 23.4523 105.307 23.4523ZM105.078 25.3177C104.921 25.3177 104.786 25.2822 104.672 25.2112C104.559 25.1401 104.472 25.0418 104.411 24.9163C104.349 24.7908 104.319 24.6468 104.319 24.4842C104.319 24.3188 104.35 24.1738 104.412 24.0493C104.474 23.9247 104.562 23.8279 104.676 23.7588C104.79 23.6887 104.924 23.6537 105.078 23.6537C105.235 23.6537 105.371 23.6892 105.485 23.7602C105.599 23.8303 105.686 23.9281 105.746 24.0536C105.807 24.1782 105.838 24.3217 105.838 24.4842C105.838 24.6487 105.807 24.7937 105.746 24.9192C105.685 25.0438 105.597 25.1416 105.483 25.2126C105.37 25.2827 105.234 25.3177 105.078 25.3177ZM105.078 25.071C105.241 25.071 105.363 25.0165 105.443 24.9075C105.522 24.7986 105.562 24.6575 105.562 24.4842C105.562 24.3062 105.522 24.1646 105.441 24.0595C105.36 23.9534 105.239 23.9004 105.078 23.9004C104.968 23.9004 104.877 23.9252 104.806 23.9748C104.735 24.0244 104.682 24.0931 104.647 24.1806C104.612 24.2682 104.594 24.3694 104.594 24.4842C104.594 24.6614 104.635 24.8034 104.717 24.9105C104.799 25.0175 104.919 25.071 105.078 25.071ZM106.843 25.3177C106.688 25.3177 106.553 25.2837 106.437 25.2155C106.322 25.1464 106.232 25.0506 106.168 24.928C106.104 24.8044 106.072 24.6604 106.072 24.4959C106.072 24.3237 106.104 24.1748 106.167 24.0493C106.23 23.9228 106.318 23.8254 106.431 23.7573C106.545 23.6882 106.678 23.6537 106.831 23.6537C106.99 23.6537 107.124 23.6902 107.235 23.7632C107.347 23.8362 107.431 23.9403 107.486 24.0755C107.543 24.2108 107.567 24.3718 107.559 24.5587H107.297V24.4653C107.294 24.2716 107.254 24.1271 107.178 24.0317C107.102 23.9354 106.99 23.8872 106.84 23.8872C106.679 23.8872 106.557 23.9388 106.473 24.042C106.39 24.1451 106.348 24.293 106.348 24.4857C106.348 24.6716 106.39 24.8156 106.473 24.9178C106.557 25.0199 106.676 25.071 106.831 25.071C106.935 25.071 107.026 25.0472 107.102 24.9995C107.179 24.9518 107.24 24.8832 107.283 24.7937L107.533 24.8798C107.472 25.019 107.379 25.127 107.256 25.2039C107.133 25.2798 106.995 25.3177 106.843 25.3177ZM106.26 24.5587V24.35H107.425V24.5587H106.26ZM108.48 25.3163C108.292 25.3163 108.138 25.2754 108.017 25.1936C107.897 25.1109 107.824 24.9956 107.797 24.8477L108.062 24.8054C108.084 24.891 108.133 24.9591 108.21 25.0097C108.287 25.0594 108.382 25.0842 108.496 25.0842C108.604 25.0842 108.689 25.0618 108.75 25.017C108.811 24.9723 108.842 24.9114 108.842 24.8346C108.842 24.7898 108.832 24.7538 108.811 24.7265C108.791 24.6983 108.748 24.6721 108.684 24.6477C108.621 24.6234 108.525 24.5942 108.397 24.5601C108.258 24.5232 108.148 24.4847 108.068 24.4448C107.988 24.4049 107.932 24.3587 107.897 24.3062C107.863 24.2536 107.846 24.1899 107.846 24.1149C107.846 24.0225 107.872 23.9417 107.922 23.8726C107.973 23.8026 108.043 23.7486 108.134 23.7106C108.225 23.6727 108.331 23.6537 108.452 23.6537C108.572 23.6537 108.679 23.6727 108.773 23.7106C108.868 23.7486 108.944 23.8026 109.001 23.8726C109.059 23.9417 109.094 24.0225 109.105 24.1149L108.839 24.1631C108.826 24.0785 108.785 24.0118 108.716 23.9631C108.648 23.9145 108.56 23.8887 108.452 23.8858C108.35 23.8819 108.267 23.8999 108.203 23.9398C108.139 23.9797 108.108 24.0337 108.108 24.1018C108.108 24.1398 108.119 24.1724 108.143 24.1996C108.167 24.2269 108.211 24.2526 108.276 24.277C108.341 24.3013 108.435 24.329 108.559 24.3602C108.698 24.3952 108.807 24.4336 108.887 24.4755C108.968 24.5164 109.025 24.565 109.059 24.6215C109.093 24.6769 109.11 24.7455 109.11 24.8273C109.11 24.9791 109.054 25.0988 108.943 25.1863C108.831 25.273 108.676 25.3163 108.48 25.3163Z" fill="#FFFCF2"/>
<path d="M48.8051 8.41553V5.6137C48.8051 5.54784 48.7514 5.49427 48.6855 5.49427H32.7587C32.6928 5.49427 32.6391 5.54784 32.6391 5.6137V8.41553C32.6391 8.48138 32.6928 8.53495 32.7587 8.53495H38.7283C38.7942 8.53495 38.8479 8.58853 38.8479 8.65438V25.2572C38.8479 25.323 38.9016 25.3766 38.9675 25.3766H42.2427C42.3086 25.3766 42.3623 25.323 42.3623 25.2572V8.65438C42.3623 8.58853 42.416 8.53495 42.4819 8.53495H48.6857C48.7517 8.53495 48.8054 8.48138 48.8054 8.41553H48.8051Z" fill="#FFFCF2"/>
<path d="M58.2914 10.9911H55.2505C55.1845 10.9911 55.1309 11.0446 55.1309 11.1105V19.3417C55.1309 19.8983 55.0699 20.4178 54.9492 20.9008C54.8275 21.3837 54.627 21.7955 54.3472 22.1394C54.0672 22.4833 53.7028 22.7569 53.2555 22.9605C52.8079 23.1651 52.2481 23.267 51.5756 23.267C50.6993 23.267 50.0175 23.0072 49.5325 22.4869C49.0475 21.9677 48.8051 21.0777 48.8051 19.8158V11.111C48.8051 11.0452 48.7514 10.9916 48.6855 10.9916H45.8791C45.8131 10.9916 45.7595 11.0452 45.7595 11.111V20.1293C45.7595 22.0239 46.1801 23.4402 47.0224 24.3784C47.8633 25.3162 49.2283 25.7853 51.1142 25.7853C51.9096 25.7853 52.6909 25.5666 53.4583 25.1304C54.2258 24.6943 54.8042 24.1129 55.1932 23.389H55.2481V25.2577C55.2481 25.3235 55.3018 25.3771 55.3678 25.3771H58.2914C58.3574 25.3771 58.411 25.3235 58.411 25.2577V11.111C58.411 11.0452 58.3574 10.9916 58.2914 10.9916V10.9911Z" fill="#FFFCF2"/>
<path d="M85.5173 11.8262C84.6093 11.0099 83.37 10.6017 81.7966 10.6017C80.8525 10.6017 79.9927 10.8285 79.2148 11.2835C78.4369 11.7384 77.8079 12.364 77.3263 13.1618L77.2714 13.1057V11.1105C77.2714 11.0446 77.2177 10.9911 77.1517 10.9911H74.3454C74.2794 10.9911 74.2258 11.0446 74.2258 11.1105V20.289H74.2247V22.4778C74.2247 22.4875 74.2237 22.4974 74.2216 22.5068C74.1389 22.8797 73.8049 23.158 73.4057 23.158C73.0066 23.158 72.6514 22.8609 72.5833 22.4702V21.634H72.5857V15.509C72.5857 13.8739 72.1323 12.646 71.2257 11.8273C70.3177 11.0099 69.0783 10.6004 67.505 10.6004C66.5609 10.6004 65.7011 10.8285 64.9232 11.2835C64.1453 11.7395 63.5163 12.3677 63.0347 13.1665L62.9797 13.1104V11.1105C62.9797 11.0446 62.9261 10.9911 62.8601 10.9911H60.0537C59.9878 10.9911 59.9341 11.0446 59.9341 11.1105V25.2572C59.9341 25.323 59.9878 25.3766 60.0537 25.3766H62.9774C63.0434 25.3766 63.097 25.323 63.097 25.2572V16.9136C63.097 16.3943 63.1813 15.902 63.3488 15.4387C63.5163 14.9743 63.7495 14.5709 64.0482 14.227C64.3468 13.8844 64.7112 13.6152 65.1399 13.42C65.5686 13.2246 66.0547 13.1276 66.596 13.1276C67.5471 13.1276 68.2465 13.3827 68.6951 13.8938C69.1427 14.4036 69.3851 15.2247 69.4225 16.357V20.5495C69.4225 20.8022 69.4215 21.0633 69.4225 21.3416V21.634H69.4236V21.8504C69.4236 22.9942 69.9128 24.0232 70.6933 24.7434C70.6991 24.7489 70.7051 24.7541 70.7108 24.7594C70.7354 24.7818 70.7595 24.8051 70.7849 24.827H70.7859C70.8069 24.8453 70.8286 24.8631 70.8503 24.8809C70.8655 24.8937 70.881 24.9062 70.8964 24.9188C70.9166 24.9355 70.9367 24.9522 70.9569 24.9674C70.9579 24.9684 70.9603 24.9697 70.9616 24.9708C70.9919 24.9953 71.0213 25.0175 71.0529 25.0397H71.054C71.1207 25.0889 71.1888 25.1357 71.2589 25.1801C71.3291 25.2245 71.4018 25.2666 71.4746 25.3076C71.6455 25.4017 71.8245 25.4832 72.0101 25.5514C72.1957 25.6196 72.3878 25.6742 72.5852 25.7145C72.8417 25.766 73.1066 25.7929 73.3783 25.7929C73.6664 25.7929 73.9512 25.7612 74.2239 25.7027C74.2239 25.7027 74.225 25.7027 74.2263 25.7027C74.3095 25.6847 74.3919 25.6638 74.4736 25.6405C74.5553 25.6173 74.6356 25.5917 74.7147 25.5634C74.7626 25.5459 74.8107 25.5284 74.8586 25.5096C74.9523 25.4722 75.046 25.4312 75.1363 25.3857C75.1782 25.3664 75.2198 25.345 75.2607 25.3228C75.2662 25.3199 75.2717 25.3173 75.2772 25.3141C75.3646 25.2681 75.4507 25.2188 75.5337 25.1649C75.5452 25.1576 75.5569 25.1479 75.5685 25.1404C76.5822 24.4811 77.2831 23.382 77.3711 22.119C77.3818 22.0278 77.3891 21.9377 77.3891 21.8504C77.3891 21.2961 77.3881 20.8224 77.3881 20.289V16.8867C77.3881 16.3674 77.4724 15.8751 77.6399 15.4118C77.8074 14.9474 78.0406 14.5439 78.3393 14.2C78.6379 13.8575 79.0023 13.5883 79.431 13.3931C79.8597 13.1989 80.3458 13.1007 80.8871 13.1007C81.8382 13.1007 82.5376 13.3557 82.9863 13.8669C83.4338 14.3767 83.6762 15.1978 83.7136 16.3301V25.2572C83.7136 25.323 83.7673 25.3766 83.8333 25.3766H86.7569C86.8229 25.3766 86.8765 25.323 86.8765 25.2572V15.4985C86.8765 13.8671 86.4232 12.6423 85.5165 11.8262H85.5173Z" fill="#FFFCF2"/>
<path d="M91.5607 10.9911H88.637C88.5709 10.9911 88.5174 11.0445 88.5174 11.1105V25.2572C88.5174 25.3231 88.5709 25.3766 88.637 25.3766H91.5607C91.6267 25.3766 91.6803 25.3231 91.6803 25.2572V11.1105C91.6803 11.0445 91.6267 10.9911 91.5607 10.9911Z" fill="#FFFCF2"/>
<path d="M91.5607 5.49427H88.637C88.5709 5.49427 88.5174 5.54774 88.5174 5.6137V8.4158C88.5174 8.48175 88.5709 8.53522 88.637 8.53522H91.5607C91.6267 8.53522 91.6803 8.48175 91.6803 8.4158V5.6137C91.6803 5.54774 91.6267 5.49427 91.5607 5.49427Z" fill="#FFFCF2"/>
<path d="M9.46392 11.9744L2.8298 5.31526C2.76306 5.31526 2.72589 5.31526 2.65914 5.31526L0.426744 7.54142C0.426744 7.60806 0.426744 7.64516 0.426744 7.7118L6.25313 13.5342C6.32851 13.6095 6.27511 13.738 6.16832 13.738L0.635352 13.7354C0.486945 13.7354 0.366548 13.8554 0.366548 14.0035L0.365234 16.8833C0.365234 17.0314 0.485378 17.1516 0.633786 17.1516L6.15655 17.1542C6.26334 17.1542 6.31699 17.2828 6.24135 17.3581C4.96065 18.6268 3.0104 20.5913 2.30893 21.2812C1.40487 22.1841 1.08895 22.4958 0.409727 23.1745C0.364707 23.2194 0.361829 23.2921 0.404493 23.3394C0.621477 23.5803 1.29494 24.2124 1.84958 24.7839C2.20083 25.1328 2.41049 25.3468 2.68636 25.6196C2.74081 25.6724 2.72275 25.6643 2.74422 25.6465C3.3881 25.0063 8.25153 20.1534 8.45726 19.9509C8.69492 19.7018 9.33436 19.1011 9.49559 18.9004C10.2282 17.9408 10.6679 16.7463 10.6685 15.4476C10.669 14.1347 10.2101 12.94 9.46392 11.9747V11.9744Z" fill="#FFFCF2"/>
<path d="M27.7861 13.8632L27.7367 13.7825C27.6783 13.6918 27.5914 13.639 27.498 13.6377L27.0088 13.6382C27.0043 13.6382 27.0001 13.6372 26.9957 13.6372L18.7314 13.6327C18.6249 13.6327 18.5715 13.5039 18.6469 13.4289L24.4937 7.59814C24.5036 7.58795 24.5122 7.57723 24.5209 7.56626L24.8499 7.23778C24.9078 7.18003 24.9337 7.09719 24.9219 6.99737L24.4534 5.04742C24.4235 4.92251 24.3149 4.81433 24.189 4.78402L22.3626 4.35205L22.2704 4.32984C22.1647 4.3071 22.066 4.33089 21.999 4.39596L21.6485 4.74664C21.6472 4.74795 21.6457 4.749 21.6443 4.75031L15.7975 10.5811C15.7222 10.6563 15.5934 10.603 15.5934 10.4964L15.5965 2.24558C15.5965 2.23304 15.595 2.22076 15.5937 2.20847V1.73967C15.5937 1.65814 15.5533 1.58105 15.4743 1.51885L13.762 0.470714C13.6526 0.403555 13.4992 0.403556 13.3885 0.471237L11.7911 1.45509L11.7102 1.50449C11.6194 1.56302 11.5665 1.64951 11.5652 1.7428L11.5657 2.24114C11.5657 2.24114 11.5657 2.2427 11.5657 2.24349V3.09015C11.5657 3.0925 11.5652 3.09486 11.5652 3.09721L11.5657 3.49075L11.5526 29.041C11.5526 29.0559 11.5537 29.0708 11.5555 29.0852V29.5477C11.5555 29.6293 11.5958 29.7064 11.6749 29.7686L13.3872 30.8167C13.4419 30.8502 13.5073 30.8671 13.573 30.8671C13.6387 30.8671 13.7052 30.8501 13.7604 30.8164L15.3578 29.8326L15.4387 29.7832C15.5295 29.7247 15.5824 29.6382 15.5837 29.5449L15.5832 29.0573C15.5832 29.0526 15.5842 29.0481 15.5842 29.0437L15.5887 20.7926C15.5887 20.6862 15.7177 20.6329 15.7931 20.7082L21.6333 26.5457C21.6443 26.5567 21.6561 26.5664 21.6684 26.5755L21.9946 26.9011C22.0432 26.9497 22.11 26.9759 22.1896 26.9759C22.2045 26.9759 22.2197 26.9751 22.2354 26.9732L24.1885 26.5055C24.3133 26.4757 24.422 26.3675 24.4523 26.2416L24.885 24.4181L24.9072 24.3261C24.9303 24.2208 24.9062 24.122 24.841 24.0551L24.4884 23.7039C24.4884 23.7039 24.4869 23.7021 24.4861 23.7013L18.6445 17.8627C18.5691 17.7874 18.6225 17.6589 18.7293 17.6589L26.9949 17.6633C27.0098 17.6633 27.0247 17.662 27.0394 17.6602H27.5016C27.5833 17.6602 27.6605 17.6199 27.7228 17.541L28.7726 15.8315C28.8399 15.7222 28.8399 15.5691 28.7724 15.4586L27.7867 13.8637L27.7861 13.8632Z" fill="#FFFCF2"/>
<path d="M96.8985 8.01528C96.7097 8.01528 96.5324 7.98001 96.3665 7.90946C96.2026 7.83891 96.0586 7.74167 95.9347 7.61774C95.8107 7.4919 95.7135 7.34699 95.6429 7.18301C95.5724 7.01903 95.5371 6.84267 95.5371 6.6539C95.5371 6.46705 95.5724 6.29163 95.6429 6.12766C95.7135 5.96368 95.8107 5.81972 95.9347 5.69579C96.0586 5.56995 96.2026 5.47271 96.3665 5.40406C96.5324 5.33352 96.7097 5.29824 96.8985 5.29824C97.0854 5.29824 97.2608 5.33352 97.4248 5.40406C97.5887 5.47271 97.7327 5.56995 97.8566 5.69579C97.9806 5.81972 98.0778 5.96368 98.1483 6.12766C98.2189 6.29163 98.2542 6.46705 98.2542 6.6539C98.2542 6.84267 98.2189 7.01903 98.1483 7.18301C98.0778 7.34699 97.9806 7.4919 97.8566 7.61774C97.7327 7.74167 97.5887 7.83891 97.4248 7.90946C97.2608 7.98001 97.0854 8.01528 96.8985 8.01528ZM96.8985 7.72928C97.0949 7.72928 97.2741 7.68066 97.4362 7.58342C97.6002 7.48618 97.7298 7.35652 97.8252 7.19445C97.9224 7.03238 97.971 6.8522 97.971 6.6539C97.971 6.45561 97.9224 6.27542 97.8252 6.11335C97.7298 5.95129 97.6002 5.82258 97.4362 5.72725C97.2741 5.63001 97.0949 5.58139 96.8985 5.58139C96.7002 5.58139 96.5191 5.63001 96.3551 5.72725C96.193 5.82258 96.0634 5.95129 95.9661 6.11335C95.8689 6.27542 95.8203 6.45561 95.8203 6.6539C95.8203 6.8522 95.8689 7.03238 95.9661 7.19445C96.0634 7.35652 96.193 7.48618 96.3551 7.58342C96.5191 7.68066 96.7002 7.72928 96.8985 7.72928ZM96.4323 7.30599V5.98179H97.0129C97.1311 5.98179 97.2331 6.02374 97.3189 6.10763C97.4047 6.19153 97.4486 6.29258 97.4505 6.4108C97.4505 6.48516 97.4286 6.55952 97.3847 6.63388C97.3409 6.70634 97.2798 6.76068 97.2017 6.79691L97.4534 7.30599H97.2074L96.9814 6.83695H96.6468V7.30599H96.4323ZM96.6468 6.63388H97.01C97.0672 6.63388 97.1178 6.61196 97.1616 6.5681C97.2074 6.52425 97.2303 6.47181 97.2303 6.4108C97.2303 6.34216 97.2064 6.28782 97.1588 6.24778C97.113 6.20583 97.0634 6.18486 97.01 6.18486H96.6468V6.63388Z" fill="#FFFCF2"/>
</svg>
